<svg xmlns="http://www.w3.org/2000/svg" width="500" viewBox="0 0 5 2" preserveAspectRatio="xMinYMin meet" style="margin: 10px auto;">
	<path d="M 1, 0.35 Q 1, 0.25 0.91056, 0.20528 L 0.58944, 0.04472 Q 0.5, 0 0.41056, 0.04472 L 0.08944, 0.20528 Q 0, 0.25 0, 0.35 L 0, 0.65 Q 0, 0.75 0.08, 0.81 L 0.76, 1.32 Q 0.8, 1.35 0.8, 1.4 L 0.8, 1.6 Q 0.8, 1.65 0.75528, 1.67236 L 0.54472, 1.77764 Q 0.5, 1.8 0.45528, 1.77764 L 0.24472, 1.67236 Q 0.2, 1.65 0.2, 1.6 L 0.2, 1.35 Q 0.2, 1.25 0.1, 1.25 L 0, 1.25 Q 0, 1.25 0, 1.25 L 0, 1.65 Q 0, 1.75 0.08944, 1.79472 L 0.41056, 1.95528 Q 0.5, 2 0.58944, 1.95528 L 0.91056, 1.79472 Q 1, 1.75 1, 1.65 L 1, 1.35 Q 1, 1.25 0.92, 1.19 L 0.24, 0.68 Q 0.2, 0.65 0.2, 0.6 L 0.2, 0.4 Q 0.2, 0.35 0.24472, 0.32764 L 0.45528, 0.22236 Q 0.5, 0.2 0.54472, 0.22236 L 0.75528, 0.32764 Q 0.8, 0.35 0.8, 0.4 L 0.8, 0.65 Q 0.8, 0.75 0.9, 0.75 L 1, 0.75 Q 1, 0.75 1, 0.75z" fill="#000"/>
	<path d="M 1.03536, 1.26464 Q 1, 1.3 1, 1.25 L 1, 1.25 Q 1, 1.2 1.03536, 1.16464 L 1.27929, 0.92071 Q 1.35, 0.85 1.27929, 0.77929 L 1.32071, 0.82071 Q 1.25, 0.75 1.17929, 0.82071 L 1.22071, 0.77929 Q 1.15, 0.85 1.15, 0.95 L 1.15, 1.04 Q 1.15, 1.04 1.15, 1.04 L 1.05, 1.14 Q 1.05, 1.14 1.05, 1.14 L 1.05, 0.95 Q 1.05, 0.85 1.12071, 0.77929 L 1.10858, 0.79142 Q 1.25, 0.65 1.39142, 0.79142 L 1.34393, 0.74393 Q 1.45, 0.85 1.34393, 0.95607 L 1.15, 1.15 Q 1.15, 1.15 1.15, 1.15 L 1.15, 1.3 Q 1.15, 1.35 1.18536, 1.31464 L 1.17322, 1.32678 Q 1.35, 1.15 1.52678, 1.32678 L 1.57929, 1.37929 Q 1.65, 1.45 1.65, 1.55 L 1.65, 1.62 Q 1.65, 1.67 1.67906, 1.62931 L 1.67094, 1.64069 Q 1.7, 1.6 1.7, 1.55 L 1.7, 1.45 Q 1.7, 1.35 1.78944, 1.30528 L 1.91056, 1.24472 Q 2, 1.2 2.08944, 1.24472 L 2.21056, 1.30528 Q 2.3, 1.35 2.3, 1.45 L 2.3, 1.5 Q 2.3, 1.55 2.35, 1.55 L 2.3, 1.55 Q 2.35, 1.55 2.35, 1.5 L 2.35, 1.45 Q 2.35, 1.35 2.43944, 1.30528 L 2.56056, 1.24472 Q 2.65, 1.2 2.73944, 1.24472 L 2.90528, 1.32764 Q 2.95, 1.35 3, 1.35 L 2.95, 1.35 Q 3, 1.35 3, 1.3 L 3, 1.35 Q 3, 1.25 3.08944, 1.20528 L 3.21056, 1.14472 Q 3.3, 1.1 3.38944, 1.14472 L 3.51056, 1.20528 Q 3.6, 1.25 3.6, 1.35 L 3.6, 1.35 Q 3.6, 1.45 3.51056, 1.49472 L 3.38944, 1.55528 Q 3.3, 1.6 3.21346, 1.5499 L 3.11, 1.49 Q 3.11, 1.49 3.11, 1.49 L 3.11, 1.4 Q 3.11, 1.4 3.11, 1.4 L 3.25575, 1.47671 Q 3.3, 1.5 3.34472, 1.47764 L 3.45528, 1.42236 Q 3.5, 1.4 3.5, 1.35 L 3.5, 1.35 Q 3.5, 1.3 3.45528, 1.27764 L 3.34472, 1.22236 Q 3.3, 1.2 3.25528, 1.22236 L 3.14472, 1.27764 Q 3.1, 1.3 3.1, 1.35 L 3.1, 1.35 Q 3.1, 1.35 3.1, 1.35 L 3.1, 1.55 Q 3.1, 1.6 3.14472, 1.62236 L 3.25528, 1.67764 Q 3.3, 1.7 3.34472, 1.67764 L 3.75, 1.475 Q 3.75, 1.475 3.75, 1.475 L 4.20528, 1.24736 Q 4.25, 1.225 4.25, 1.175 L 4.25, 1.075 Q 4.25, 1.025 4.20528, 1.00264 L 4.09472, 0.94736 Q 4.05, 0.925 4.00528, 0.94736 L 3.89472, 1.00264 Q 3.85, 1.025 3.85, 1.075 L 3.85, 1.42 Q 3.85, 1.42 3.85, 1.42 L 3.75, 1.47 Q 3.75, 1.47 3.75, 1.47 L 3.75, 1.075 Q 3.75, 0.975 3.83944, 0.93028 L 3.96056, 0.86972 Q 4.05, 0.825 4.13944, 0.86972 L 4.26056, 0.93028 Q 4.35, 0.975 4.35, 1.075 L 4.35, 1.175 Q 4.35, 1.275 4.26056, 1.31972 L 3.85, 1.525 Q 3.85, 1.525 3.85, 1.525 L 3.85, 1.55 Q 3.85, 1.6 3.89472, 1.62236 L 4.00528, 1.67764 Q 4.05, 1.7 4.09615, 1.68077 L 4.30385, 1.59423 Q 4.35, 1.575 4.39682, 1.55744 L 4.50318, 1.51756 Q 4.55, 1.5 4.58536, 1.46464 L 4.61464, 1.43536 Q 4.65, 1.4 4.61464, 1.36464 L 4.58536, 1.33536 Q 4.55, 1.3 4.51464, 1.33536 L 4.48536, 1.36464 Q 4.45, 1.4 4.45, 1.45 L 4.45, 1.53 Q 4.45, 1.53 4.45, 1.53 L 4.35, 1.565 Q 4.35, 1.565 4.35, 1.565 L 4.35, 1.5 Q 4.35, 1.4 4.42071, 1.32929 L 4.47929, 1.27071 Q 4.55, 1.2 4.62071, 1.27071 L 4.67929, 1.32929 Q 4.75, 1.4 4.69453, 1.48321 L 4.70547, 1.46679 Q 4.65, 1.55 4.55637, 1.58511 L 4.45, 1.625 Q 4.45, 1.625 4.45, 1.625 L 4.60528, 1.70264 Q 4.65, 1.725 4.69472, 1.70264 L 4.80528, 1.64736 Q 4.85, 1.625 4.85, 1.575 L 4.85, 1.275 Q 4.85, 1.225 4.9, 1.225 L 4.9, 1.225 Q 4.95, 1.225 4.95, 1.275 L 4.95, 1.575 Q 4.95, 1.675 4.95, 1.775 L 4.95, 1.7 Q 4.95, 1.8 4.86679, 1.85547 L 4.73321, 1.94453 Q 4.65, 2 4.56056, 1.95528 L 4.39472, 1.87236 Q 4.35, 1.85 4.35, 1.8 L 4.35, 1.8 Q 4.35, 1.75 4.39472, 1.77236 L 4.60528, 1.87764 Q 4.65, 1.9 4.6924, 1.8735 L 4.8076, 1.8015 Q 4.85, 1.775 4.85, 1.725 L 4.85, 1.775 Q 4.85, 1.725 4.80528, 1.74736 L 4.73944, 1.78028 Q 4.65, 1.825 4.56056, 1.78028 L 4.35, 1.675 Q 4.35, 1.675 4.35, 1.675 L 4.14231, 1.76154 Q 4.05, 1.8 3.96056, 1.75528 L 3.83944, 1.69472 Q 3.75, 1.65 3.75, 1.55 L 3.75, 1.575 Q 3.75, 1.575 3.75, 1.575 L 3.38944, 1.75528 Q 3.3, 1.8 3.21056, 1.75528 L 3.08944, 1.69472 Q 3, 1.65 3, 1.55 L 3, 1.5 Q 3, 1.45 2.95, 1.45 L 3, 1.45 Q 2.95, 1.45 2.95, 1.5 L 2.95, 1.55 Q 2.95, 1.65 2.86056, 1.69472 L 2.69472, 1.77764 Q 2.65, 1.8 2.65, 1.75 L 2.65, 1.75 Q 2.65, 1.7 2.69472, 1.67764 L 2.80528, 1.62236 Q 2.85, 1.6 2.85, 1.55 L 2.85, 1.45 Q 2.85, 1.4 2.80528, 1.37764 L 2.69472, 1.32236 Q 2.65, 1.3 2.60528, 1.32236 L 2.49472, 1.37764 Q 2.45, 1.4 2.45, 1.45 L 2.45, 1.5 Q 2.45, 1.55 2.45, 1.6 L 2.45, 1.95 Q 2.45, 2 2.4, 2 L 2.4, 2 Q 2.35, 2 2.35, 1.95 L 2.35, 1.7 Q 2.35, 1.65 2.3, 1.65 L 2.4, 1.65 Q 2.3, 1.65 2.21056, 1.69472 L 2.04472, 1.77764 Q 2, 1.8 1.95621, 1.77587 L 1.755, 1.665 Q 1.755, 1.665 1.755, 1.665 L 1.805, 1.605 Q 1.805, 1.605 1.805, 1.605 L 1.95505, 1.6781 Q 2, 1.7 2.04472, 1.67764 L 2.15528, 1.62236 Q 2.2, 1.6 2.2, 1.55 L 2.2, 1.45 Q 2.2, 1.4 2.15528, 1.37764 L 2.04472, 1.32236 Q 2, 1.3 1.95528, 1.32236 L 1.84472, 1.37764 Q 1.8, 1.4 1.8, 1.45 L 1.8, 1.6 Q 1.8, 1.6 1.8, 1.6 L 1.68, 1.76 Q 1.65, 1.8 1.6, 1.8 L 1.6, 1.8 Q 1.55, 1.8 1.55, 1.75 L 1.55, 1.6 Q 1.55, 1.5 1.47929, 1.42929 L 1.42071, 1.37071 Q 1.35, 1.3 1.27929, 1.37071 L 1.22071, 1.42929 Q 1.15, 1.5 1.15, 1.6 L 1.15, 1.75 Q 1.15, 1.8 1.1, 1.8 L 1.1, 1.8 Q 1.05, 1.8 1.05, 1.75 L 1.05, 1.25 Q 1.05, 1.25 1.05, 1.25z" fill="#000"/>
</svg>