<svg xmlns="http://www.w3.org/2000/svg" class="shapely-svg-canvas" preserveAspectRatio="xMinYMin meet" viewBox="0 0 1 1" style="aspect-ratio: 0.86603 / 1; width: 100%; --shadow: 0 0 4px #000;">
	<defs>
		<path id="small-logo-bg" d="M 0.97, 0.765 Q 1, 0.75 1, 0.72 L 1, 0.28 Q 1, 0.25 0.97, 0.235 L 0.53, 0.015 Q 0.5, 0 0.47, 0.015 L 0.03, 0.235 Q 0, 0.25 0, 0.28 L 0, 0.72 Q 0, 0.75 0.03, 0.765 L 0.47, 0.985 Q 0.5, 1 0.53, 0.985z"></path>
		<clipPath id="small-logo-bg-clip" clipPathUnits="objectBoundingBox">
			<use href="#small-logo-bg"></use>
		</clipPath>
		<path id="small-logo-signet" d="M 0.6, 0.135 Q 0.6, 0.075 0.54179, 0.06045 L 0.35821, 0.01455 Q 0.3, 0 0.24179, 0.01455 L 0.05821, 0.06045 Q 0, 0.075 0, 0.135 L 0, 0.165 Q 0, 0.225 0.05618, 0.24607 L 0.45191, 0.39447 Q 0.48, 0.405 0.48, 0.435 L 0.48, 0.465 Q 0.48, 0.495 0.4509, 0.50228 L 0.3291, 0.53272 Q 0.3, 0.54 0.2709, 0.53272 L 0.1491, 0.50228 Q 0.12, 0.495 0.12, 0.465 L 0.12, 0.435 Q 0.12, 0.375 0.06, 0.375 L 0, 0.375 Q 0, 0.375 0, 0.375 L 0, 0.465 Q 0, 0.525 0.05821, 0.53955 L 0.24179, 0.58545 Q 0.3, 0.6 0.35821, 0.58545 L 0.54179, 0.53955 Q 0.6, 0.525 0.6, 0.465 L 0.6, 0.435 Q 0.6, 0.375 0.54382, 0.35393 L 0.14809, 0.20553 Q 0.12, 0.195 0.12, 0.165 L 0.12, 0.135 Q 0.12, 0.105 0.1491, 0.09772 L 0.2709, 0.06728 Q 0.3, 0.06 0.3291, 0.06728 L 0.4509, 0.09772 Q 0.48, 0.105 0.48, 0.135 L 0.48, 0.165 Q 0.48, 0.225 0.54, 0.225 L 0.6, 0.225 Q 0.6, 0.225 0.6, 0.225z"></path>
		<clipPath id="small-logo-signet-clip">
			<use href="#small-logo-signet"></use>
		</clipPath>
	</defs>
		<use class="shapely-geometry-ref" href="#small-logo-bg" style="fill: #006CE4; stroke: #FFF; stroke-width: 0.1; clip-path: url(&quot;#small-logo-bg-clip&quot;);"></use>
		<use class="shapely-geometry-ref" href="#small-logo-signet" x="0.2" y="0.2" style="fill: #FFF; clip-path: url(&quot;#small-logo-signet-clip&quot;);"></use>
</svg>